<?xml version="1.0" encoding="utf-8"?>
<!-- Generator: Adobe Illustrator 26.0.3, SVG Export Plug-In . SVG Version: 6.00 Build 0)  -->
<svg version="1.1" id="레이어_1" xmlns="http://www.w3.org/2000/svg" xmlns:xlink="http://www.w3.org/1999/xlink" x="0px"
	 y="0px" viewBox="0 0 292 56" style="enable-background:new 0 0 292 56;" xml:space="preserve">
<style type="text/css">
	.st0{fill:#5A21FF;}
	.st1{opacity:0.4;fill:none;}
</style>
<g>
	<g>
		<path class="st0" d="M81.4,42.6c-3.3,0-5.8-0.8-7.3-2.5c-1.6-1.7-2.3-4-2.3-7V22.2h-3.6v-6.9h3.6V9.7l9.1-2.4v8h6.5l-0.4,6.9h-6.1
			v10.3c0,1.3,0.3,2.2,1,2.7c0.6,0.5,1.6,0.8,2.9,0.8c1.1,0,2.2-0.2,3.3-0.6v6.2C86.3,42.3,84,42.6,81.4,42.6z"/>
		<path class="st0" d="M104,42.6c-5.2,0-9-1.2-11.4-3.6c-2.4-2.4-3.7-5.8-3.7-10.4c0-4.5,1.2-7.9,3.7-10.3c2.5-2.4,6.3-3.6,11.4-3.6
			c5.2,0,9,1.2,11.4,3.6c2.5,2.4,3.7,5.9,3.7,10.3c0,4.5-1.2,8-3.7,10.4C113.1,41.5,109.2,42.6,104,42.6z M104,35.5
			c2.1,0,3.6-0.5,4.5-1.6c0.9-1.1,1.4-2.8,1.4-5.3c0-2.4-0.5-4.2-1.4-5.3c-0.9-1.1-2.4-1.6-4.5-1.6c-2.1,0-3.6,0.5-4.5,1.6
			c-0.9,1.1-1.4,2.8-1.4,5.3c0,2.4,0.5,4.2,1.4,5.3C100.5,35,102,35.5,104,35.5z"/>
		<path class="st0" d="M120.8,42.1V4h9.1v19.9l8.8-8.6H149l-10.7,11.1l11.3,15.6h-9.7l-7.4-10.8l-2.7,2.6v8.2H120.8z"/>
		<path class="st0" d="M162.9,42.6c-4.7,0-8.4-1.2-11.2-3.5c-2.8-2.3-4.2-5.8-4.2-10.5c0-4.3,1.2-7.6,3.5-10.2
			c2.3-2.5,5.8-3.8,10.5-3.8c4.3,0,7.5,1.1,9.9,3.3c2.3,2.2,3.5,5.1,3.5,8.8v4.8h-19c0.4,1.8,1.4,3,2.9,3.7c1.5,0.7,3.6,1,6.2,1
			c1.5,0,3-0.1,4.5-0.4c1.5-0.3,2.8-0.6,3.8-1v5.9c-1.3,0.6-2.8,1-4.6,1.3C166.9,42.5,165,42.6,162.9,42.6z M155.8,26.4h11.1v-1.2
			c0-1.3-0.4-2.4-1.2-3.1c-0.8-0.8-2.1-1.2-4-1.2c-2.2,0-3.7,0.4-4.6,1.3C156.3,23.1,155.8,24.5,155.8,26.4z"/>
		<path class="st0" d="M177.2,42.4V15.6h8.5l0.3,2.3c1.1-0.8,2.5-1.4,4.1-2c1.7-0.6,3.4-0.9,5.3-0.9c3.5,0,6,0.8,7.6,2.5
			c1.6,1.7,2.4,4.2,2.4,7.7v17.2h-9.1V25.9c0-1.5-0.3-2.6-1-3.2c-0.6-0.6-1.8-1-3.4-1c-1,0-2,0.2-3,0.7c-1,0.5-1.9,1-2.5,1.7v18.2
			H177.2z"/>
		<path class="st0" d="M210.9,42.1V22h-4l0.8-6.7H220v26.8H210.9z M210.1,11.1V4.2h9.9v6.8H210.1z"/>
		<path class="st0" d="M235.7,42.6c-3.3,0-5.8-0.8-7.3-2.5c-1.6-1.7-2.3-4-2.3-7V22.2h-3.6v-6.9h3.6V9.7l9.1-2.4v8h6.5l-0.4,6.9
			h-6.1v10.3c0,1.3,0.3,2.2,1,2.7c0.6,0.5,1.6,0.8,2.9,0.8c1.1,0,2.2-0.2,3.3-0.6v6.2C240.5,42.3,238.3,42.6,235.7,42.6z"/>
		<path class="st0" d="M252.2,52c-1.4,0-2.5-0.1-3.5-0.2c-1-0.1-1.9-0.4-2.9-0.8v-6.3c0.6,0.2,1.2,0.4,1.8,0.5
			c0.5,0.1,1.1,0.1,1.7,0.1c1.5,0,2.7-0.3,3.5-0.8c0.8-0.5,1.6-1.5,2.3-2.9l-12-26.3h9.5l7.1,17l6.9-17h9.5l-10.2,24.6
			c-1,2.4-2.1,4.6-3.4,6.4c-1.2,1.8-2.7,3.2-4.3,4.2C256.5,51.5,254.5,52,252.2,52z"/>
	</g>
	<g>
		<rect x="16.1" y="16" class="st0" width="12" height="12"/>
		<path class="st0" d="M40.1,52c-12,0-12-12-12-12V28h12v9c0,1.7,1.3,3,3,3h9v12H40.1"/>
		<circle class="st0" cx="34.1" cy="10" r="6"/>
		<circle class="st0" cx="46.1" cy="22" r="6"/>
	</g>
	<rect x="0.1" y="0" class="st1" width="292" height="56"/>
</g>
</svg>
