<?xml version="1.0" encoding="utf-8"?>
<!-- Generator: Adobe Illustrator 26.0.3, SVG Export Plug-In . SVG Version: 6.00 Build 0)  -->
<svg version="1.1" id="레이어_1" xmlns="http://www.w3.org/2000/svg" xmlns:xlink="http://www.w3.org/1999/xlink" x="0px"
	 y="0px" viewBox="0 0 24 24" style="enable-background:new 0 0 24 24;" xml:space="preserve">
<style type="text/css">
	.st0{fill:none;}
</style>
<path class="st0" d="M0,0h24v24H0V0z"/>
<path d="M21,18v1c0,1.1-0.9,2-2,2H5c-1.1,0-2-0.9-2-2V5c0-1.1,0.9-2,2-2h14c1.1,0,2,0.9,2,2v1h-9c-1.1,0-2,0.9-2,2v8
	c0,1.1,0.9,2,2,2H21z M12,16h10V8H12V16z M16,13.5c-0.8,0-1.5-0.7-1.5-1.5s0.7-1.5,1.5-1.5s1.5,0.7,1.5,1.5S16.8,13.5,16,13.5z"/>
</svg>
