<?xml version="1.0" encoding="utf-8"?>
<!-- Generator: Adobe Illustrator 25.3.0, SVG Export Plug-In . SVG Version: 6.00 Build 0)  -->
<svg version="1.0" id="레이어_1" xmlns="http://www.w3.org/2000/svg" xmlns:xlink="http://www.w3.org/1999/xlink" x="0px"
	 y="0px" viewBox="0 0 24 24" style="enable-background:new 0 0 24 24;" xml:space="preserve">
<style type="text/css">
	.st0{fill:none;}
</style>
<g>
	<rect id="사각형_221" y="0.04" class="st0" width="24" height="24"/>
	<g>
		<path id="패스_7715" d="M4.63,8.94l-1.74-1c-0.45,0.98-0.73,2.03-0.84,3.1h2.02C4.16,10.32,4.35,9.61,4.63,8.94z"/>
		<path id="패스_7716" d="M7.17,5.68l-1-1.75C5.3,4.56,4.53,5.33,3.9,6.21l1.74,1.01C6.07,6.64,6.59,6.12,7.17,5.68z"/>
		<path id="패스_7717" d="M4.07,13.04H2.05c0.11,1.07,0.39,2.12,0.84,3.1l1.74-1C4.35,14.47,4.16,13.76,4.07,13.04z"/>
		<path id="패스_7719" d="M5.64,16.87l-1.74,1c0.63,0.87,1.4,1.64,2.27,2.27l1.01-1.74C6.6,17.97,6.08,17.45,5.64,16.87z"/>
		<path id="패스_7720" d="M11,4.11V2.09C9.93,2.2,8.88,2.48,7.9,2.93l1,1.74C9.57,4.39,10.28,4.2,11,4.11z"/>
		<path id="패스_7727" d="M13,15.04v-2h2v-2h-2v-2h-2v2H9v2h2v2H13z"/>
		<path d="M15.42,2.64c-0.06-0.02-0.11-0.04-0.17-0.06l0,0.01c-0.73-0.25-1.48-0.43-2.25-0.5v2.02c0.64,0.08,1.26,0.24,1.86,0.47
			c4.01,1.53,6.12,5.98,4.71,10.07c-1.44,4.18-5.99,6.4-10.17,4.96L8.75,21.5c5.21,1.84,10.92-0.88,12.77-6.09
			C23.36,10.2,20.63,4.49,15.42,2.64z"/>
	</g>
</g>
</svg>
