<?xml version="1.0" encoding="utf-8"?>
<!-- Generator: Adobe Illustrator 26.0.3, SVG Export Plug-In . SVG Version: 6.00 Build 0)  -->
<svg version="1.1" id="레이어_1" xmlns="http://www.w3.org/2000/svg" xmlns:xlink="http://www.w3.org/1999/xlink" x="0px"
	 y="0px" viewBox="0 0 24 24" style="enable-background:new 0 0 24 24;" xml:space="preserve">
<style type="text/css">
	.st0{fill:none;}
</style>
<path class="st0" d="M0,0h24v24H0V0z"/>
<path d="M4,16v6h16v-6c0-1.1-0.9-2-2-2H6C4.9,14,4,14.9,4,16z M18,18H6v-2h12V18z M12,2C9.2,2,7,4.2,7,7l5,7l5-7C17,4.2,14.8,2,12,2
	z M12,11L9,7c0-1.7,1.3-3,3-3s3,1.3,3,3L12,11z"/>
</svg>
