<?xml version="1.0" encoding="utf-8"?>
<!-- Generator: Adobe Illustrator 25.3.0, SVG Export Plug-In . SVG Version: 6.00 Build 0)  -->
<svg version="1.0" id="레이어_1" xmlns="http://www.w3.org/2000/svg" xmlns:xlink="http://www.w3.org/1999/xlink" x="0px"
	 y="0px" viewBox="0 0 24 24" style="enable-background:new 0 0 24 24;" xml:space="preserve">
<style type="text/css">
	.st0{fill:none;}
</style>
<g id="그룹_19068" transform="translate(-80 -120)">
	<g id="패스_7683">
		<path class="st0" d="M80,120h24v24H80V120z"/>
	</g>
	<g id="그룹_18454" transform="translate(87.127 127.128)">
		<g id="패스_7684">
			<path d="M9.37,5.51H5.52v3.86H4.23V5.51H0.37V4.23h3.86V0.37h1.29v3.86h3.86V5.51z"/>
		</g>
		<g id="사각형_52" transform="translate(-0.127 -0.128)">
			<g>
				<path d="M11,14.43H-0.57C-2.46,14.43-4,12.89-4,11V-0.57C-4-2.46-2.46-4-0.57-4H11c1.89,0,3.43,1.54,3.43,3.43V11
					C14.43,12.89,12.89,14.43,11,14.43z M-0.57-2.29c-0.95,0-1.71,0.77-1.71,1.71V11c0,0.95,0.77,1.71,1.71,1.71H11
					c0.95,0,1.71-0.77,1.71-1.71V-0.57c0-0.95-0.77-1.71-1.71-1.71H-0.57z"/>
			</g>
		</g>
	</g>
</g>
</svg>
