<?xml version="1.0" encoding="utf-8"?>
<!-- Generator: Adobe Illustrator 26.0.3, SVG Export Plug-In . SVG Version: 6.00 Build 0)  -->
<svg version="1.1" id="레이어_1" xmlns="http://www.w3.org/2000/svg" xmlns:xlink="http://www.w3.org/1999/xlink" x="0px"
	 y="0px" viewBox="0 0 24 24" style="enable-background:new 0 0 24 24;" xml:space="preserve">
<style type="text/css">
	.st0{fill:none;}
</style>
<path class="st0" d="M0,0h24v24H0V0z"/>
<path d="M15,4c-4.4,0-8,3.6-8,8s3.6,8,8,8s8-3.6,8-8S19.4,4,15,4z M15,18c-3.3,0-6-2.7-6-6s2.7-6,6-6s6,2.7,6,6S18.3,18,15,18z"/>
<path d="M3,12c0-2.6,1.7-4.8,4-5.7V4.3c-3.5,0.9-6,4-6,7.7s2.5,6.9,6,7.7v-2.1C4.7,16.8,3,14.6,3,12z"/>
</svg>
